<mxfile host="app.diagrams.net" modified="2023-11-22T14:08:26.075Z" agent="Mozilla/5.0 (X11; Linux x86_64) AppleWebKit/537.36 (KHTML, like Gecko) Chrome/111.0.0.0 Safari/537.36" version="22.1.3" etag="z5nduBp1plcoLkgn6UPP" type="github">
  <diagram name="Страница — 1" id="uo_vX-6VFGZi4B7BGsti">
    <mxGraphModel>
      <root>
        <mxCell id="0" />
        <mxCell id="1" parent="0" />
      </root>
    </mxGraphModel>
  </diagram>
</mxfile>
